<svg width="180" height="260" viewBox="0 0 180 260" xmlns="http://www.w3.org/2000/svg">
  <g fill="none" fill-rule="evenodd">
    <path d="M0 0h10L0 10V0zm180 0v10L170 0h10zm0 260h-10l10-10v10zM0 260v-10l10 10H0z" fill="#2E3092"/>
    <path d="M20 260v-10l10 10H20zm-10-10v-10l10 10H10zM0 240v-10l10 10H0zm160 20h-10l10-10v10zm10-10h-10l10-10v10zm10-10h-10l10-10v10zM160 0v10L150 0h10zm10 10v10l-10-10h10zm10 10v10l-10-10h10zM20 0h10L20 10V0zM10 10h10L10 20V10zM0 20h10L0 30V20z" fill="#412B91"/>
    <path d="M40 0h10L40 10V0zM30 10h10L30 20V10zM20 20h10L20 30V20zM10 30h10L10 40V30zM0 40h10L0 50V40zM140 0v10L130 0h10zm10 10v10l-10-10h10zm10 10v10l-10-10h10zm10 10v10l-10-10h10zm10 10v10l-10-10h10zm-40 220h-10l10-10v10zm10-10h-10l10-10v10zm10-10h-10l10-10v10zm10-10h-10l10-10v10zm10-10h-10l10-10v10zM40 260v-10l10 10H40zm-10-10v-10l10 10H30zm-10-10v-10l10 10H20zm-10-10v-10l10 10H10zM0 220v-10l10 10H0z" fill="#542691"/>
    <path d="M120 260h-10l10-10v10zm10-10h-10l10-10v10zm10-10h-10l10-10v10zm10-10h-10l10-10v10zm10-10h-10l10-10v10zm10-10h-10l10-10v10zm10-10h-10l10-10v10zM60 260v-10l10 10H60zm-10-10v-10l10 10H50zm-10-10v-10l10 10H40zm-10-10v-10l10 10H30zm-10-10v-10l10 10H20zm-10-10v-10l10 10H10zM0 200v-10l10 10H0zM60 0h10L60 10V0zM50 10h10L50 20V10zM40 20h10L40 30V20zM30 30h10L30 40V30zM20 40h10L20 50V40zM10 50h10L10 60V50zM0 60h10L0 70V60zM120 0v10L110 0h10zm10 10v10l-10-10h10zm10 10v10l-10-10h10zm10 10v10l-10-10h10zm10 10v10l-10-10h10zm10 10v10l-10-10h10zm10 10v10l-10-10h10z" fill="#672290"/>
    <path d="M100 0v10L90 0h10zm10 10v10l-10-10h10zm10 10v10l-10-10h10zm10 10v10l-10-10h10zm10 10v10l-10-10h10zm10 10v10l-10-10h10zm10 10v10l-10-10h10zm10 10v10l-10-10h10zm10 10v10l-10-10h10zM80 0h10L80 10V0zM0 80h10L0 90V80zm10-10h10L10 80V70zm10-10h10L20 70V60zm10-10h10L30 60V50zm10-10h10L40 50V40zm10-10h10L50 40V30zm10-10h10L60 30V20zm10-10h10L70 20V10zm10 250v-10l10 10H80zm-10-10v-10l10 10H70zm-10-10v-10l10 10H60zm-10-10v-10l10 10H50zm-10-10v-10l10 10H40zm-10-10v-10l10 10H30zm-10-10v-10l10 10H20zm-10-10v-10l10 10H10zM0 180v-10l10 10H0zm100 80H90l10-10v10zm80-80h-10l10-10v10zm-10 10h-10l10-10v10zm-10 10h-10l10-10v10zm-10 10h-10l10-10v10zm-10 10h-10l10-10v10zm-10 10h-10l10-10v10zm-10 10h-10l10-10v10zm-10 10h-10l10-10v10z" fill="#7A1D8F"/>
    <path d="M80 240v-10l10 10H80zm-10-10v-10l10 10H70zm-10-10v-10l10 10H60zm-10-10v-10l10 10H50zm-10-10v-10l10 10H40zm-10-10v-10l10 10H30zm-10-10v-10l10 10H20zm-10-10v-10l10 10H10zM0 160v-10l10 10H0zm180 0h-10l10-10v10zm-10 10h-10l10-10v10zm-10 10h-10l10-10v10zm-10 10h-10l10-10v10zm-10 10h-10l10-10v10zm-10 10h-10l10-10v10zm-10 10h-10l10-10v10zm-10 10h-10l10-10v10zm-10 10H90l10-10v10zm0-220v10L90 20h10zm10 10v10l-10-10h10zm10 10v10l-10-10h10zm10 10v10l-10-10h10zm10 10v10l-10-10h10zm10 10v10l-10-10h10zm10 10v10l-10-10h10zm10 10v10l-10-10h10zm10 10v10l-10-10h10zM0 100h10L0 110v-10zm10-10h10l-10 10V90zm10-10h10L20 90V80zm10-10h10L30 80V70zm10-10h10L40 70V60zm10-10h10L50 60V50zm10-10h10L60 50V40zm10-10h10L70 40V30zm10-10h10L80 30V20z" fill="#8C188F"/>
    <path d="M100 40v10L90 40h10zm10 10v10l-10-10h10zm10 10v10l-10-10h10zm10 10v10l-10-10h10zm10 10v10l-10-10h10zm10 10v10l-10-10h10zm10 10v10l-10-10h10zm10 10v10l-10-10h10zm10 10v10l-10-10h10zM10 110h10l-10 10v-10zm10-10h10l-10 10v-10zm10-10h10l-10 10V90zm10-10h10L40 90V80zm10-10h10L50 80V70zm10-10h10L60 70V60zm10-10h10L70 60V50zm10-10h10L80 50V40zm0 180v-10l10 10H80zm-10-10v-10l10 10H70zm-10-10v-10l10 10H60zm-10-10v-10l10 10H50zm-10-10v-10l10 10H40zm-10-10v-10l10 10H30zm-10-10v-10l10 10H20zm-10-10v-10l10 10H10zM0 140v-10l10 10H0zm170 10h-10l10-10v10zm-10 10h-10l10-10v10zm-10 10h-10l10-10v10zm-10 10h-10l10-10v10zm-10 10h-10l10-10v10zm-10 10h-10l10-10v10zm-10 10h-10l10-10v10zm-10 10H90l10-10v10z" fill="#9F138E"/>
    <path d="M80 200v-10l10 10H80zm-10-10v-10l10 10H70zm-10-10v-10l10 10H60zm-10-10v-10l10 10H50zm-10-10v-10l10 10H40zm-10-10v-10l10 10H30zm-10-10v-10l10 10H20zm-10-10v-10l10 10H10zm130 30h-10l10-10v10zm10-10h-10l10-10v10zm-20 20h-10l10-10v10zm-10 10h-10l10-10v10zm-10 10h-10l10-10v10zm-10 10H90l10-10v10zm0-140v10L90 60h10zm10 10v10l-10-10h10zm10 10v10l-10-10h10zm10 10v10l-10-10h10zm10 10v10l-10-10h10zm10 10v10l-10-10h10zm10 10v10l-10-10h10zm10 10v10l-10-10h10zM40 100h10l-10 10v-10zm-10 10h10l-10 10v-10zm20-20h10l-10 10V90zm10-10h10L60 90V80zm10-10h10L70 80V70zm10-10h10L80 70V60z" fill="#B20E8D"/>
    <path d="M100 80v10L90 80h10zm10 10v10l-10-10h10zm10 10v10l-10-10h10zm10 10v10l-10-10h10zm10 10v10l-10-10h10zm10 10v10l-10-10h10zM50 110h10l-10 10v-10zm10-10h10l-10 10v-10zm10-10h10l-10 10V90zm10-10h10L80 90V80zm0 100v-10l10 10H80zm-10-10v-10l10 10H70zm-10-10v-10l10 10H60zm-10-10v-10l10 10H50zm-10-10v-10l10 10H40zm-10-10v-10l10 10H30zm100 20h-10l10-10v10zm-10 10h-10l10-10v10zm-10 10h-10l10-10v10zm-10 10H90l10-10v10z" fill="#C50A8C"/>
    <path d="M60 140v-10l10 10H60zm-10-10v-10l10 10H50zm70-10v10l-10-10h10zm10 10v10l-10-10h10z" fill="#D8058C"/>
    <path d="M80 140v-10l10 10H80zm20 0H90l10-10v10zm0-20v10l-10-10h10zm-20 0h10l-10 10v-10z" fill="#EB008B"/>
  </g>
</svg>
